# xmcd CD database file
#
# Track frame offsets:
#	150
#	14343
#	27369
#	43905
#	71661
#	91459
#	111495
#	129994
#	138627
#	161913
#	194971
#	229508
#	254286
#	270531
#
# Disc length: 3849 seconds
#
# Revision: 2
# Processed by: cddbd v1.5.2PL0 Copyright (c) Steve Scherf et al.
# Submitted via: CDex 1.77
#
DISCID=d30f070e
DTITLE=Cesare Picco - Pianopiano - Song
DYEAR=2009
DGENRE=Jazz
TTITLE0=La prima stella
TTITLE1=Red highway
TTITLE2=King for a day
TTITLE3=Corale alla fine del giorno
TTITLE4=Karakoum
TTITLE5=Alice on the moon
TTITLE6=Le parole che non ti ho detto
TTITLE7=Bolero butterfly
TTITLE8=Nessuno come te
TTITLE9=Nirvana lane
TTITLE10=Camelia
TTITLE11=The golden age
TTITLE12=Non voltarti
TTITLE13=My room
EXTD=YEAR: 2009
EXTT0=
EXTT1=
EXTT2=
EXTT3=
EXTT4=
EXTT5=
EXTT6=
EXTT7=
EXTT8=
EXTT9=
EXTT10=
EXTT11=
EXTT12=
EXTT13=
PLAYORDER=
